<svg width="497" height="49" viewBox="0 0 497 49" fill="none" xmlns="http://www.w3.org/2000/svg">
<rect y="0.398926" width="48" height="48" rx="8" fill="#E8F5E9"/>
<g clip-path="url(#clip0_0_1441)">
<path fill-rule="evenodd" clip-rule="evenodd" d="M10.3533 0.593506C15.8761 0.593506 20.3533 5.07066 20.3533 10.5935V0.593506H30.3533C35.8761 0.593506 40.3533 5.07066 40.3533 10.5935C40.3533 16.1163 35.8761 20.5935 30.3533 20.5935C35.8761 20.5935 40.3533 25.0707 40.3533 30.5935C40.3533 33.3358 39.2494 35.8203 37.4618 37.6269L37.4244 37.6646L37.3912 37.6976C35.5842 39.4878 33.0979 40.5935 30.3533 40.5935C27.6274 40.5935 25.1562 39.5028 23.3523 37.734C23.3289 37.711 23.3055 37.6878 23.2822 37.6646C23.2603 37.6427 23.2385 37.6207 23.2168 37.5986C21.4457 35.7944 20.3533 33.3215 20.3533 30.5935C20.3533 36.1163 15.8761 40.5935 10.3533 40.5935C4.83048 40.5935 0.353333 36.1163 0.353333 30.5935V20.5935H10.3533C4.83048 20.5935 0.353333 16.1163 0.353333 10.5935C0.353333 5.07066 4.83048 0.593506 10.3533 0.593506ZM18.3533 10.5935C18.3533 15.0118 14.7716 18.5935 10.3533 18.5935V2.59351C14.7716 2.59351 18.3533 6.17523 18.3533 10.5935ZM38.3533 30.5935C38.3533 26.1752 34.7716 22.5935 30.3533 22.5935C25.935 22.5935 22.3533 26.1752 22.3533 30.5935H38.3533ZM2.35333 22.5935V30.5935C2.35333 35.0118 5.93505 38.5935 10.3533 38.5935C14.7716 38.5935 18.3533 35.0118 18.3533 30.5935V22.5935H2.35333ZM22.3533 18.5935V2.59351H30.3533C34.7716 2.59351 38.3533 6.17523 38.3533 10.5935C38.3533 15.0118 34.7716 18.5935 30.3533 18.5935H22.3533Z" fill="#5417D7"/>
</g>
<rect x="89" y="0.398926" width="48" height="48" rx="8" fill="#F5F7FA"/>
<g clip-path="url(#clip1_0_1441)">
<path fill-rule="evenodd" clip-rule="evenodd" d="M99.0981 14.3602L89.1123 24.2456C91.1096 26.2229 93.3913 27.8893 95.8789 29.193C96.5665 30.9986 97.6443 32.6919 99.1123 34.1451C104.635 39.6124 113.59 39.6124 119.112 34.1451C120.58 32.6919 121.658 30.9986 122.346 29.1929C124.833 27.8893 127.115 26.2229 129.112 24.2456L119.135 14.3683C119.127 14.3609 119.12 14.3535 119.112 14.3461C113.59 8.87877 104.635 8.87877 99.1123 14.3461C99.1076 14.3508 99.1028 14.3555 99.0981 14.3602ZM118.157 30.9765C115.247 31.9487 112.192 32.4466 109.112 32.4466C106.033 32.4466 102.978 31.9487 100.068 30.9765C100.383 31.3906 100.731 31.788 101.112 32.1652C105.531 36.5391 112.694 36.5391 117.112 32.1652C117.493 31.788 117.842 31.3906 118.157 30.9765ZM101.317 16.128C102.068 16.6187 102.866 17.0386 103.7 17.381C105.416 18.0845 107.255 18.4466 109.112 18.4466C110.97 18.4466 112.809 18.0845 114.524 17.381C115.359 17.0386 116.157 16.6187 116.907 16.128C112.544 12.0181 105.681 12.0181 101.317 16.128Z" fill="#3B4158"/>
</g>
<rect x="178" y="0.398926" width="48" height="48" rx="8" fill="#F5F7FA"/>
<g clip-path="url(#clip2_0_1441)">
<path d="M232.996 19.9153C233.001 19.8736 233.001 19.8314 232.996 19.7897C233.001 19.7557 233.001 19.7211 232.996 19.687L232.588 16.7544C232.53 16.4035 232.372 16.0756 232.134 15.8073L232.064 15.7274L231.937 15.6019L224.883 9.64528L225.081 9.83928C224.919 9.6494 224.716 9.49752 224.486 9.39483C224.256 9.29214 224.006 9.24124 223.754 9.2459H221.612C221.264 9.23914 220.924 9.34769 220.646 9.55401C220.355 9.34893 220.004 9.24094 219.645 9.2459H217.503C217.222 9.24144 216.945 9.30978 216.7 9.44403C216.455 9.57829 216.25 9.77369 216.107 10.0104C215.885 10.3486 215.802 10.756 215.874 11.1516L216.142 13.0001C215.964 12.9016 215.763 12.8504 215.56 12.8518H205.189C204.817 12.8541 204.453 12.961 204.141 13.1599C203.839 13.345 203.597 13.6101 203.443 13.9244L202.64 13.2512C202.324 12.9645 201.906 12.809 201.476 12.8176H185.204C184.83 12.8242 184.465 12.9265 184.144 13.1143C183.706 13.366 183.384 13.7753 183.248 14.2554L178.08 31.2008C177.984 31.48 177.974 31.7812 178.053 32.0657C178.132 32.3502 178.295 32.6053 178.522 32.7984C178.582 32.8476 178.644 32.8933 178.709 32.9353C178.709 32.9353 178.604 32.8668 178.546 32.8098L185.599 38.7778C185.898 39.0471 186.288 39.1976 186.693 39.1999H203.094C203.468 39.1904 203.833 39.0841 204.153 38.8918C204.333 38.7951 204.495 38.6676 204.63 38.5153L204.688 38.4354L204.781 38.3213L204.851 38.1958L205.619 38.8462C205.913 39.1048 206.295 39.2471 206.69 39.2456H223.125C223.499 39.2334 223.864 39.1273 224.184 38.9375C224.361 38.8348 224.522 38.708 224.662 38.5609L224.72 38.4811L224.813 38.367C224.863 38.2948 224.905 38.2184 224.941 38.1387C224.979 38.0695 225.01 37.9969 225.034 37.9219L229.748 22.4485V22.3116C229.754 22.2585 229.754 22.2049 229.748 22.1518V22.0492C229.754 22.0151 229.754 21.9805 229.748 21.9464C229.753 21.8743 229.753 21.8018 229.748 21.7296H231.261C231.393 21.7414 231.525 21.7414 231.657 21.7296H231.762C231.847 21.7047 231.929 21.6702 232.006 21.6269H232.123L232.332 21.4672L232.425 21.3987L232.588 21.1933V21.1249L232.705 20.9308C232.698 20.8931 232.698 20.8545 232.705 20.8168C232.698 20.7982 232.698 20.7782 232.705 20.7597C232.729 20.6928 232.749 20.6241 232.763 20.5543C232.757 20.5318 232.757 20.5083 232.763 20.4858C232.757 20.4518 232.757 20.4171 232.763 20.3831C232.763 20.3831 232.996 19.9381 232.996 19.9153Z" fill="black"/>
<path d="M201.953 14.1185C202.015 14.1733 202.058 14.2453 202.077 14.3249C202.095 14.4045 202.089 14.4878 202.058 14.5635L196.901 31.4976C196.836 31.6824 196.704 31.837 196.529 31.9312C196.387 32.0244 196.222 32.0795 196.052 32.091H179.663C179.523 32.0844 179.391 32.0275 179.291 31.9312C179.231 31.8773 179.189 31.8072 179.171 31.7301C179.152 31.6528 179.157 31.5719 179.186 31.4976L184.354 14.5635C184.413 14.3763 184.542 14.2176 184.715 14.1185C184.859 14.032 185.023 13.9811 185.192 13.9702H201.58C201.719 13.9715 201.852 14.0245 201.953 14.1185ZM193.398 28.0857L196.482 17.9754H187.846L184.773 28.0857H193.398ZM217.596 14.2897C217.652 14.3534 217.722 14.4039 217.801 14.4375C217.879 14.4711 217.965 14.4869 218.05 14.4837H220.18C220.262 14.4844 220.342 14.4649 220.413 14.427C220.484 14.3891 220.544 14.3339 220.588 14.2668C220.626 14.2144 220.652 14.1551 220.666 14.0924C220.68 14.0297 220.681 13.9648 220.669 13.9017L220.25 10.8892C220.21 10.7498 220.139 10.621 220.041 10.5126C219.985 10.4489 219.915 10.3984 219.836 10.3648C219.758 10.3312 219.672 10.3154 219.587 10.3186H217.457C217.376 10.3179 217.296 10.3374 217.224 10.3753C217.153 10.4132 217.093 10.4683 217.049 10.5354C216.968 10.6952 216.933 10.7979 216.968 10.8892L217.399 13.9017C217.421 14.0484 217.49 14.1843 217.596 14.2897ZM224.359 10.8664C224.319 10.7269 224.248 10.5982 224.15 10.4898C224.096 10.4263 224.028 10.3758 223.951 10.3422C223.875 10.3085 223.791 10.2927 223.707 10.2958H221.566C221.486 10.2936 221.407 10.3125 221.337 10.3507C221.268 10.3889 221.21 10.4448 221.17 10.5126C221.092 10.6138 221.059 10.741 221.077 10.8664L221.507 13.8789C221.534 14.024 221.603 14.1586 221.705 14.2668C221.762 14.3293 221.832 14.379 221.911 14.4125C221.989 14.4459 222.074 14.4624 222.159 14.4608H224.301C224.38 14.4619 224.459 14.4424 224.528 14.4043C224.598 14.3663 224.656 14.311 224.697 14.244C224.737 14.193 224.765 14.1337 224.78 14.0705C224.794 14.0073 224.793 13.9418 224.778 13.8789L224.359 10.8664ZM215.722 15.4308L215.513 13.9473H205.189C205.027 13.9561 204.87 14.0073 204.735 14.0957C204.649 14.1415 204.574 14.205 204.516 14.2819C204.458 14.3587 204.417 14.447 204.397 14.5407L203.536 17.3706C203.501 17.4414 203.49 17.5207 203.502 17.5981C203.515 17.6755 203.551 17.7474 203.606 17.8043C203.704 17.8947 203.832 17.9475 203.967 17.9526H216.514L213.43 28.0629H200.917C200.756 28.0665 200.598 28.1139 200.463 28.1997C200.298 28.3023 200.178 28.4607 200.125 28.6448L199.253 31.4748C199.224 31.5474 199.217 31.6263 199.231 31.7028C199.245 31.7793 199.281 31.8504 199.334 31.9083C199.429 32.0049 199.558 32.062 199.695 32.0681H216.13C216.3 32.0538 216.464 31.9989 216.607 31.9083C216.779 31.8137 216.908 31.6588 216.968 31.4748L221.694 16.0013H216.374C216.29 16.003 216.206 15.9876 216.128 15.9562C216.05 15.9248 215.979 15.878 215.92 15.8187C215.824 15.7153 215.756 15.5897 215.722 15.4536V15.4308Z" fill="white"/>
</g>
<rect x="267" y="0.398926" width="48" height="48" rx="8" fill="#F5F7FA"/>
<g clip-path="url(#clip3_0_1441)">
<path d="M310.997 13.8102C310.997 13.844 310.997 13.8863 310.988 13.9116C310.944 14.2413 310.944 14.571 310.97 14.9091C310.988 14.9937 311.005 15.0782 311.076 15.1458C311.19 15.2726 311.366 15.2473 311.437 15.0951C311.472 15.019 311.472 14.943 311.455 14.8669C311.366 14.5456 311.349 14.2075 311.34 13.8778C311.34 13.8609 311.34 13.8355 311.34 13.8102C311.437 13.8017 311.525 13.7933 311.604 13.7933C311.666 13.7848 311.719 13.7764 311.763 13.751C311.895 13.6834 311.895 13.5397 311.754 13.4721C311.701 13.4467 311.631 13.4382 311.569 13.4382C311.349 13.4467 311.129 13.4467 310.908 13.4467C310.829 13.4467 310.75 13.4551 310.671 13.4636C310.627 13.4721 310.574 13.4721 310.539 13.4974C310.477 13.5228 310.442 13.565 310.442 13.6242C310.451 13.6834 310.477 13.7172 310.539 13.7426C310.574 13.7679 310.618 13.7764 310.662 13.7764C310.768 13.7848 310.882 13.8017 310.997 13.8102ZM313.419 14.199C313.419 14.2075 313.427 14.216 313.427 14.216C313.463 14.4442 313.498 14.664 313.524 14.8838C313.533 14.9599 313.542 15.0275 313.595 15.0867C313.709 15.2304 313.886 15.2135 313.965 15.0613C314 14.9852 314.009 14.9091 313.991 14.8246C313.938 14.571 313.912 14.3174 313.859 14.0722C313.824 13.9201 313.78 13.7764 313.736 13.6411C313.709 13.5566 313.648 13.4974 313.542 13.489C313.436 13.4721 313.357 13.5228 313.313 13.5989C313.26 13.6665 313.216 13.7341 313.181 13.8102C313.119 13.9454 313.066 14.0807 312.996 14.2075C312.987 14.2413 312.978 14.2667 312.961 14.292C312.952 14.2751 312.943 14.2667 312.943 14.2667C312.829 14.0553 312.723 13.844 312.608 13.6411C312.591 13.6242 312.582 13.6073 312.573 13.5904C312.52 13.5143 312.459 13.4721 312.362 13.4721C312.274 13.4805 312.203 13.5312 312.159 13.6073C312.142 13.6411 312.142 13.6665 312.133 13.7003C312.098 13.9708 312.053 14.2413 312.018 14.5118C312.001 14.664 311.992 14.8161 311.992 14.9683C311.983 15.0021 311.992 15.0444 312.009 15.0782C312.027 15.1458 312.08 15.1881 312.15 15.1966C312.238 15.205 312.3 15.1796 312.327 15.112C312.353 15.0613 312.362 15.019 312.371 14.9768C312.406 14.8246 312.432 14.6809 312.459 14.5372C312.476 14.4527 312.485 14.385 312.512 14.292C312.529 14.3258 312.547 14.3512 312.564 14.3766C312.644 14.478 312.723 14.5795 312.82 14.664C312.917 14.7316 312.996 14.7232 313.075 14.6471C313.093 14.6302 313.102 14.6217 313.119 14.6048C313.199 14.4865 313.295 14.3681 313.375 14.2498C313.392 14.2329 313.401 14.216 313.419 14.199Z" fill="#3A3B7B"/>
<path d="M293.124 13.9763C293.063 14.1369 293.052 14.2527 293.08 14.3489C293.111 14.4797 293.192 14.5225 293.302 14.4893C294.337 14.2437 296.605 14.9406 297.445 15.1349C297.643 15.1757 297.804 14.9303 297.669 14.7102C297.472 14.4971 295.204 13.5849 294.339 13.5351C294 13.5167 293.394 13.4332 293.124 13.9763Z" fill="#3A3B7B"/>
<path d="M301.99 11.0233C302.101 11.0844 302.162 11.1426 302.193 11.2077C302.238 11.2931 302.214 11.3522 302.138 11.3823C301.454 11.7027 300.544 13.0818 300.177 13.5574C300.088 13.6668 299.882 13.6032 299.851 13.4233C299.858 13.2198 300.664 11.7232 301.115 11.3156C301.291 11.1564 301.584 10.8442 301.99 11.0233Z" fill="#3A3B7B"/>
<path d="M296.544 10.3443C296.677 10.2485 296.815 10.2149 296.885 10.2772C297.917 11.1241 298.464 12.4652 298.803 13.693C298.815 13.7216 298.816 13.7627 298.806 13.8055C298.802 13.8421 298.774 13.8808 298.73 13.9107C298.682 13.9437 298.642 13.9538 298.622 13.9253C298.17 13.335 295.587 11.0381 296.544 10.3443Z" fill="#3A3B7B"/>
<path d="M274.695 25.0274C274.943 24.8507 275.211 24.7036 275.496 24.5894C275.793 24.5078 276.111 24.5213 276.4 24.6281C276.689 24.7348 276.933 24.9289 277.097 25.1811C277.244 25.4326 277.301 25.723 277.26 26.0085C277.22 26.294 277.084 26.5591 276.873 26.764C276.709 26.9301 276.523 27.0748 276.321 27.1944C275.416 27.7553 274.503 28.2855 273.59 28.8464C273.404 28.9868 273.206 29.1128 272.998 29.223C272.682 29.3741 272.321 29.4146 271.978 29.3374C271.634 29.2603 271.33 29.0703 271.116 28.8004C270.957 28.6092 270.823 28.4002 270.716 28.1779C269.851 26.4336 268.955 24.697 268.122 22.9219C267.738 22.1536 267.426 21.2699 267.121 20.4169C266.99 20.1691 266.964 19.8818 267.05 19.6161C267.135 19.3503 267.326 19.1272 267.58 18.994C267.835 18.8609 268.133 18.8283 268.412 18.9032C268.692 18.9781 268.929 19.1545 269.075 19.3949C269.523 19.9661 269.919 20.5728 270.26 21.2084C271.124 22.7452 271.949 24.282 272.782 25.7728C272.83 25.8552 272.884 25.9346 272.942 26.011C273.569 25.7581 274.158 25.4274 274.695 25.0274Z" fill="#3A3B7B"/>
<path d="M283.635 24.4913C281.658 26.712 278.343 26.151 276.678 23.2925C275.493 21.2639 275.285 17.9136 277.863 15.8005C278.413 15.3581 279.072 15.0567 279.776 14.9245C280.64 14.8056 281.521 14.9519 282.294 15.3425C283.066 15.733 283.689 16.3479 284.076 17.0991C285.485 19.558 285.285 22.6931 283.635 24.4913ZM282.835 19.3121C282.625 18.7079 282.203 18.192 281.642 17.8521C281.324 17.6348 280.938 17.5292 280.549 17.553C280.16 17.5768 279.791 17.7285 279.504 17.9828C278.359 18.9587 278.119 21.2716 278.952 22.6471C279.058 22.8714 279.214 23.0707 279.409 23.2311C279.603 23.3915 279.832 23.5092 280.079 23.5757C280.326 23.6424 280.586 23.6563 280.839 23.6167C281.092 23.5771 281.333 23.4848 281.546 23.3463C282.166 22.8845 282.622 22.2486 282.848 21.527C283.075 20.8054 283.062 20.0339 282.811 19.3199L282.835 19.3121Z" fill="#3A3B7B"/>
<path d="M291.706 20.2804C291.503 20.3222 291.294 20.3247 291.09 20.2877C290.887 20.2507 290.693 20.1751 290.521 20.0653C290.37 19.9824 290.24 19.8684 290.14 19.7315C290.04 19.5946 289.974 19.4383 289.945 19.2736C289.916 19.1091 289.925 18.9403 289.972 18.7796C290.019 18.6188 290.102 18.4701 290.216 18.344C290.415 18.0906 290.697 17.9093 291.017 17.8292C291.852 17.5967 292.711 17.4549 293.579 17.4066C293.77 17.3853 293.963 17.4008 294.147 17.4521C294.332 17.5035 294.503 17.5897 294.653 17.7057C294.802 17.8216 294.925 17.965 295.016 18.1274C295.106 18.2898 295.162 18.468 295.18 18.6514C295.43 19.5524 295.458 20.497 295.26 21.41C294.54 24.3607 292.058 25.375 289.272 24.4298C288.49 24.1771 287.804 23.7063 287.302 23.0775C286.633 22.3202 286.159 21.4227 285.917 20.4572C285.721 19.5974 285.743 18.7052 285.98 17.8551C286.216 17.0049 286.662 16.2214 287.278 15.57C287.863 14.8621 288.623 14.3049 289.488 13.9487C290.035 13.6594 290.674 13.5772 291.281 13.7182C291.419 13.7547 291.544 13.826 291.643 13.9245C291.742 14.0231 291.812 14.1453 291.846 14.2786C291.88 14.4119 291.875 14.5513 291.834 14.6825C291.792 14.8136 291.715 14.9317 291.61 15.0245C291.41 15.1982 291.192 15.3526 290.961 15.4855C290.249 15.9206 289.63 16.4812 289.136 17.1376C288.812 17.5624 288.588 18.0502 288.482 18.5666C288.375 19.083 288.388 19.6155 288.519 20.1268C288.701 20.8238 289.104 21.4495 289.672 21.9171C291.433 23.454 293.723 21.9709 293.323 19.8732C292.738 20.0115 292.226 20.1575 291.706 20.2804Z" fill="#3A3B7B"/>
<path d="M302.466 24.6143C299.864 26.1511 296.902 24.6143 296.253 21.3869C295.781 19.0817 296.678 15.8544 299.816 14.6249C300.484 14.3689 301.208 14.2791 301.922 14.3636C302.779 14.5143 303.565 14.9194 304.17 15.5218C304.775 16.1243 305.167 16.8937 305.292 17.7216C305.821 20.4648 304.62 23.3925 302.466 24.6143ZM303.371 19.4428C303.37 18.8045 303.135 18.1868 302.706 17.6985C302.477 17.3965 302.146 17.1802 301.769 17.0862C301.393 16.9924 300.994 17.0268 300.641 17.1837C299.232 17.7677 298.239 19.8885 298.599 21.4484C298.627 21.6932 298.709 21.9293 298.842 22.1402C298.974 22.351 299.153 22.5315 299.366 22.6691C299.579 22.8067 299.82 22.898 300.074 22.9367C300.327 22.9754 300.586 22.9605 300.833 22.893C301.578 22.6433 302.222 22.1766 302.677 21.558C303.132 20.9395 303.375 20.2 303.371 19.4428Z" fill="#3A3B7B"/>
<path d="M307.923 25.2598C307.884 25.5411 307.73 25.7958 307.495 25.968C307.26 26.1402 306.964 26.2158 306.671 26.1781C306.378 26.1404 306.112 25.9925 305.933 25.7669C305.753 25.5415 305.675 25.2567 305.714 24.9755C305.753 24.6943 305.907 24.4395 306.142 24.2673C306.377 24.0951 306.674 24.0196 306.967 24.0573C307.26 24.095 307.525 24.2428 307.705 24.4683C307.884 24.6939 307.963 24.9786 307.923 25.2598ZM307.227 14.8939C307.379 14.6707 307.603 14.5007 307.864 14.4093C308.125 14.3179 308.41 14.31 308.676 14.3868C308.947 14.4517 309.186 14.604 309.353 14.818C309.521 15.0321 309.607 15.2949 309.597 15.5624C309.561 15.9916 309.495 16.4179 309.397 16.838C309.132 18.2596 308.876 19.6811 308.596 21.0873C308.468 21.6483 308.3 22.1862 308.116 22.7548C308.052 22.9325 307.945 23.0931 307.803 23.2235C307.716 23.3216 307.604 23.3968 307.478 23.4422C307.351 23.4877 307.215 23.5018 307.082 23.4835C306.949 23.4651 306.823 23.4147 306.715 23.3371C306.607 23.2594 306.522 23.1569 306.466 23.0391C306.371 22.8278 306.32 22.6007 306.314 22.3706C306.314 21.4177 306.314 20.4572 306.378 19.4967C306.487 18.1259 306.701 16.7647 307.019 15.4241C307.056 15.2445 307.127 15.0728 307.227 14.917V14.8939Z" fill="#3A3B7B"/>
<path fill-rule="evenodd" clip-rule="evenodd" d="M271.313 31.4346C271.218 31.6371 271.192 31.8629 271.238 32.0802C271.269 32.3666 271.337 32.6484 271.439 32.919C271.568 33.2504 271.711 33.5781 271.888 33.982C271.929 34.0749 271.971 34.172 272.016 34.274C272.254 34.8212 272.554 35.5205 272.953 36.5326C273.066 36.82 273.167 37.1099 273.268 37.4018C273.309 37.5197 273.35 37.638 273.392 37.7565C273.542 38.1781 273.801 38.5568 274.144 38.857C274.289 39.0219 274.482 39.1422 274.699 39.2023C274.92 39.2636 275.155 39.2597 275.373 39.1911C275.592 39.1225 275.784 38.9924 275.924 38.8177C276.062 38.6464 276.143 38.44 276.159 38.2243C276.249 37.8042 276.218 37.3686 276.071 36.9636C275.837 36.2911 275.571 35.6177 275.265 34.959L275.263 34.9561C274.758 33.9255 274.245 32.9021 273.708 31.8782L273.704 31.8711C273.547 31.6043 273.342 31.3659 273.1 31.1664C272.942 30.9884 272.725 30.8683 272.486 30.8269C272.241 30.7847 271.988 30.8273 271.773 30.9472C271.57 31.0587 271.408 31.2293 271.313 31.4346Z" fill="#3A3B7B"/>
<path fill-rule="evenodd" clip-rule="evenodd" d="M279.022 28.8969C278.231 28.7002 277.404 28.6715 276.6 28.813C275.977 28.8718 275.365 29.0097 274.94 29.2828C274.723 29.4218 274.548 29.6003 274.451 29.8272C274.353 30.0553 274.341 30.3161 274.421 30.6068C274.567 31.1392 274.757 31.6569 274.947 32.1729L274.977 32.2564L274.978 32.2583C275.548 33.7573 276.124 35.2513 276.705 36.7401C276.773 36.9747 276.869 37.2011 276.991 37.4146L276.993 37.4185C277.154 37.6837 277.361 37.9209 277.604 38.1202C277.726 38.2297 277.876 38.3055 278.04 38.3394C278.204 38.3735 278.376 38.3636 278.535 38.3107C278.694 38.2577 278.836 38.1638 278.943 38.0391C279.049 37.9165 279.118 37.7687 279.144 37.6114C279.249 37.1842 279.215 36.7364 279.047 36.328C278.995 36.1906 278.954 36.0501 278.91 35.9023C278.896 35.853 278.881 35.8028 278.866 35.7517C280.196 35.2528 281.611 34.5819 282.109 33.0212C282.303 32.4819 282.32 31.8978 282.155 31.3492C281.99 30.8 281.652 30.3132 281.187 29.9558C280.555 29.4556 279.816 29.0941 279.022 28.8969ZM276.829 30.8113C276.855 30.804 276.881 30.7973 276.908 30.791C277.773 30.6604 278.659 30.8345 279.402 31.2811C279.729 31.4995 279.863 31.7423 279.886 31.9759C279.91 32.2164 279.819 32.477 279.636 32.7275C279.29 33.2007 278.659 33.5795 278.089 33.6501C277.673 32.7315 277.251 31.7756 276.829 30.8113Z" fill="#3A3B7B"/>
<path d="M284.299 27.2155C285.242 26.7977 286.409 26.7255 287.323 27.0193C287.553 27.0836 287.753 27.2227 287.888 27.4129C288.022 27.6018 288.084 27.8296 288.063 28.0572C288.062 28.205 288.024 28.3504 287.953 28.4815C287.88 28.6151 287.775 28.7299 287.647 28.8163C287.519 28.9027 287.371 28.9583 287.215 28.9781C287.06 28.9981 286.901 28.9817 286.754 28.9305L286.743 28.9266L286.732 28.9213C286.657 28.8834 286.577 28.8548 286.494 28.8362L286.488 28.8351C285.846 28.6713 285.24 28.9428 285.018 29.2763C284.912 29.4354 284.899 29.5959 284.987 29.742C285.082 29.8984 285.313 30.0739 285.78 30.199C285.909 30.2329 286.04 30.2656 286.174 30.2988C286.544 30.3906 286.928 30.4861 287.3 30.6184L287.301 30.6189C289.015 31.2448 289.653 32.541 289.435 33.7602C289.218 34.9659 288.169 36.0631 286.592 36.3219C286.018 36.4441 285.42 36.4203 284.858 36.2529C284.295 36.0851 283.788 35.7788 283.386 35.3643L283.376 35.3535C283.249 35.1974 283.164 35.014 283.126 34.8193C283.091 34.6437 283.11 34.4622 283.179 34.2962C283.247 34.1311 283.364 33.9883 283.514 33.8842C283.672 33.7662 283.863 33.6955 284.063 33.6807C284.263 33.666 284.462 33.7076 284.637 33.8003C284.812 33.8813 284.975 33.9847 285.121 34.1077L285.123 34.11C285.382 34.3366 285.694 34.3957 285.994 34.341C286.298 34.2855 286.584 34.1129 286.767 33.8838C286.95 33.6562 287.023 33.3859 286.936 33.1234C286.849 32.8591 286.585 32.5629 286.007 32.3153C285.856 32.2536 285.699 32.2039 285.536 32.1556C285.492 32.1425 285.447 32.1295 285.402 32.1163C285.281 32.0812 285.157 32.045 285.036 32.0052C284.952 31.9777 284.869 31.9518 284.786 31.926C284.561 31.8557 284.342 31.7871 284.131 31.6952C283.672 31.545 283.275 31.2568 282.999 30.873C282.723 30.4877 282.584 30.0269 282.603 29.5595C282.604 28.4204 283.352 27.6356 284.299 27.2155Z" fill="#3A3B7B"/>
<path d="M296.249 27.094C296.066 27.0083 295.864 26.9676 295.661 26.9756C295.457 26.9836 295.259 27.0401 295.085 27.1399C294.911 27.239 294.766 27.3778 294.661 27.544C294.566 27.6839 294.5 27.8404 294.467 28.0047C294.434 28.1689 294.435 28.3376 294.469 28.5014C294.503 28.7119 294.541 28.9166 294.578 29.1185C294.64 29.4526 294.7 29.7792 294.739 30.1121L294.741 30.1206C294.831 30.6428 294.878 31.1709 294.882 31.7002L294.883 31.7077C294.914 32.2792 294.711 32.8397 294.318 33.27L294.311 33.2777C294.184 33.435 294.012 33.5551 293.817 33.6245C293.622 33.6939 293.411 33.7099 293.207 33.6706C293.003 33.6313 292.815 33.5384 292.663 33.4021C292.511 33.2659 292.401 33.0912 292.347 32.8987C292.23 32.4929 292.162 32.0755 292.145 31.6549L292.344 28.6057C292.347 28.5659 292.351 28.525 292.354 28.4838C292.362 28.3912 292.37 28.2969 292.373 28.2089C292.378 28.0794 292.373 27.9463 292.342 27.8203C292.31 27.6915 292.249 27.569 292.14 27.4646C292.033 27.3614 291.888 27.2852 291.705 27.2333C291.375 27.1416 291.096 27.1445 290.864 27.2392C290.631 27.3339 290.472 27.5098 290.359 27.7129C290.247 27.9143 290.175 28.1528 290.121 28.3916C290.08 28.5689 290.048 28.7549 290.017 28.932C290.006 28.9931 289.996 29.053 289.985 29.1112L289.985 29.1129C289.82 30.0841 289.771 31.0703 289.839 32.0522C289.851 32.5828 289.967 33.1066 290.179 33.5968C290.418 34.2292 290.852 34.7772 291.422 35.1684C291.994 35.5603 292.676 35.7763 293.379 35.7877C294.081 35.7991 294.771 35.6054 295.356 35.2323C295.94 34.8597 296.393 34.3257 296.654 33.701C297.02 32.9051 297.192 32.0396 297.156 31.1704C297.135 30.5358 297.099 29.8964 297.063 29.2601C297.046 28.9481 297.028 28.6366 297.012 28.3271C297.004 28.0168 296.898 27.7161 296.707 27.4656C296.589 27.3072 296.431 27.1795 296.249 27.094Z" fill="#3A3B7B"/>
<path d="M302.717 31.8752C302.699 31.8978 302.679 31.9212 302.659 31.9455C302.51 31.1224 302.372 30.2996 302.234 29.4756C302.185 29.1799 302.135 28.883 302.085 28.5869L302.08 28.5539L302.061 28.5254C302.027 28.4716 302.023 28.419 302.023 28.3067V28.2937L302.021 28.2808C301.984 28.0489 301.875 27.833 301.708 27.6615C301.541 27.4905 301.325 27.3715 301.087 27.3198C300.85 27.2636 300.6 27.276 300.37 27.3555C300.14 27.4348 299.94 27.5773 299.794 27.7651C299.673 27.9092 299.574 28.0691 299.499 28.24C299.331 28.608 299.16 28.977 298.989 29.3469L298.987 29.3533C298.56 30.2769 298.131 31.2067 297.714 32.1438L297.713 32.1468C297.457 32.7544 297.246 33.3947 297.035 34.0329C296.993 34.1603 296.951 34.2877 296.909 34.4147C296.833 34.6161 296.799 34.83 296.811 35.0439C296.797 35.2354 296.845 35.4264 296.948 35.5911C297.053 35.7591 297.21 35.8914 297.397 35.9692C297.596 36.0528 297.818 36.0705 298.028 36.0196C298.238 35.9688 298.425 35.8525 298.558 35.6891C298.729 35.4877 298.876 35.2681 298.995 35.0355C299.348 34.3422 299.686 33.6406 300.022 32.9419C300.152 32.6717 300.278 32.4297 300.422 32.1661C300.431 32.1986 300.442 32.2303 300.452 32.2621C300.603 32.8984 300.857 33.5079 301.205 34.0683C301.271 34.187 301.363 34.2908 301.474 34.3724C301.587 34.4551 301.717 34.5131 301.856 34.5425C301.994 34.572 302.138 34.5721 302.277 34.5429C302.415 34.5138 302.546 34.4557 302.658 34.3735L302.882 34.213L304.616 32.8113L304.513 33.4384C304.372 34.3004 304.233 35.1553 304.084 36.0103C303.987 36.3893 303.987 36.7851 304.085 37.164C304.127 37.3772 304.234 37.5735 304.393 37.7278C304.554 37.8835 304.759 37.9892 304.983 38.0314C305.206 38.0735 305.438 38.0501 305.648 37.9643C305.855 37.8797 306.03 37.7383 306.153 37.558C306.439 37.2176 306.617 36.8054 306.666 36.3706C306.739 35.7566 306.823 35.1343 306.906 34.5121C307.002 33.7949 307.097 33.078 307.178 32.3748L307.179 32.3726C307.256 31.6028 307.294 30.8299 307.292 30.0566C307.309 29.8122 307.245 29.5687 307.11 29.3606C306.975 29.1518 306.774 28.9895 306.537 28.8966C306.29 28.7889 306.013 28.7601 305.748 28.8146C305.485 28.8686 305.246 29.0019 305.068 29.1949C304.748 29.4788 304.448 29.7826 304.169 30.1043L304.168 30.1064C303.864 30.4698 303.562 30.8403 303.262 31.2084C303.08 31.4321 302.898 31.6554 302.717 31.8752Z" fill="#3A3B7B"/>
</g>
<rect x="356" y="0.398926" width="48" height="48" rx="8" fill="#F5F7FA"/>
<g clip-path="url(#clip4_0_1441)">
<path d="M394.438 12.0894C394.438 12.5553 394.82 12.9331 395.292 12.9331H396.146C396.618 12.9331 397 12.5553 397 12.0894C397 11.6234 396.618 11.2456 396.146 11.2456H395.292C394.82 11.2456 394.438 11.6234 394.438 12.0894Z" fill="#212326"/>
<path d="M369.667 38.2456H373.816L372.608 37.0523C372.288 36.7359 371.853 36.5581 371.4 36.5581H369.667C363.062 36.5581 357.708 31.2695 357.708 24.7456C357.708 18.2217 363.062 12.9331 369.667 12.9331H383.333C389.938 12.9331 395.292 18.2217 395.292 24.7456C395.292 31.2695 389.938 36.5581 383.333 36.5581H378.221C377.541 36.5581 376.889 36.2914 376.409 35.8168L374.994 34.4188C374.193 33.6276 373.106 33.1831 371.974 33.1831H369.667C364.949 33.1831 361.125 29.4055 361.125 24.7456C361.125 20.0857 364.949 16.3081 369.667 16.3081H383.333C388.051 16.3081 391.875 20.0857 391.875 24.7456C391.875 29.4055 388.051 33.1831 383.333 33.1831H380.051C379.371 33.1831 378.719 32.9164 378.239 32.4418L376.823 31.0438C376.022 30.2526 374.936 29.8081 373.803 29.8081H369.667C366.836 29.8081 364.542 27.5415 364.542 24.7456C364.542 21.9497 366.836 19.6831 369.667 19.6831H383.333C386.164 19.6831 388.458 21.9497 388.458 24.7456C388.458 27.5074 386.219 29.7528 383.437 29.8071L383.436 29.8081H382.186C381.506 29.8081 380.855 29.5414 380.374 29.0668L378.959 27.6688C378.302 27.0195 377.452 26.6038 376.543 26.4755L376.5 26.4331H369.667C368.723 26.4331 367.958 25.6776 367.958 24.7456C367.958 23.8136 368.723 23.0581 369.667 23.0581H383.333C384.277 23.0581 385.042 23.8136 385.042 24.7456C385.042 25.6776 384.277 26.4331 383.333 26.4331H379.917L381.125 27.6264C381.445 27.9428 381.88 28.1206 382.333 28.1206H383.333C385.22 28.1206 386.75 26.6096 386.75 24.7456C386.75 22.8817 385.22 21.3706 383.333 21.3706H369.667C367.78 21.3706 366.25 22.8817 366.25 24.7456C366.25 26.6096 367.78 28.1206 369.667 28.1206H375.939C376.619 28.1206 377.27 28.3873 377.751 28.862L379.166 30.26C379.967 31.0511 381.053 31.4956 382.186 31.4956H383.76V31.4826C387.335 31.2649 390.167 28.3318 390.167 24.7456C390.167 21.0177 387.107 17.9956 383.333 17.9956H369.667C365.893 17.9956 362.833 21.0177 362.833 24.7456C362.833 28.4736 365.893 31.4956 369.667 31.4956H373.803C374.483 31.4956 375.135 31.7623 375.615 32.237L377.031 33.635C377.832 34.4261 378.918 34.8706 380.051 34.8706H383.333C388.994 34.8706 393.583 30.3375 393.583 24.7456C393.583 19.1537 388.994 14.6206 383.333 14.6206H369.667C364.006 14.6206 359.417 19.1537 359.417 24.7456C359.417 30.3375 364.006 34.8706 369.667 34.8706H371.974C372.653 34.8706 373.305 35.1373 373.786 35.612L375.201 37.01C376.002 37.8011 377.088 38.2456 378.221 38.2456H383.333C390.881 38.2456 397 32.2015 397 24.7456C397 17.2898 390.881 11.2456 383.333 11.2456L369.667 11.2456C362.119 11.2456 356 17.2898 356 24.7456C356 32.2015 362.119 38.2456 369.667 38.2456Z" fill="#212326"/>
</g>
<rect x="445" y="0.398926" width="48" height="48" rx="8" fill="#F5F7FA"/>
<g clip-path="url(#clip5_0_1441)">
<path d="M457.343 14.2456C455.312 14.2456 453.365 15.0523 451.929 16.4882L447.243 21.1745C445.807 22.6105 445 24.558 445 26.5887C445 30.8175 448.428 34.2456 452.657 34.2456C454.688 34.2456 456.635 33.4389 458.071 32.0029L461.313 28.7614C461.313 28.7613 461.313 28.7615 461.313 28.7614L470.757 19.3167C471.443 18.6309 472.373 18.2456 473.343 18.2456C474.967 18.2456 476.343 19.3039 476.821 20.7683L479.801 17.7876C478.442 15.6578 476.057 14.2456 473.343 14.2456C471.312 14.2456 469.365 15.0523 467.929 16.4882L455.243 29.1745C454.557 29.8603 453.627 30.2456 452.657 30.2456C450.637 30.2456 449 28.6084 449 26.5887C449 25.6189 449.385 24.6887 450.071 24.0029L454.757 19.3167C455.443 18.6309 456.373 18.2456 457.343 18.2456C458.967 18.2456 460.343 19.3039 460.821 20.7684L463.802 17.7877C462.442 15.6579 460.057 14.2456 457.343 14.2456Z" fill="#394149"/>
<path d="M471.243 29.1745C470.557 29.8603 469.627 30.2456 468.657 30.2456C467.033 30.2456 465.657 29.1876 465.179 27.7234L462.199 30.7041C463.559 32.8335 465.943 34.2456 468.657 34.2456C470.688 34.2456 472.635 33.4389 474.071 32.0029L486.757 19.3167C487.443 18.6309 488.373 18.2456 489.343 18.2456C491.363 18.2456 493 19.8828 493 21.9025C493 22.8723 492.615 23.8025 491.929 24.4883L487.243 29.1745C486.557 29.8603 485.627 30.2456 484.657 30.2456C483.033 30.2456 481.657 29.1874 481.179 27.7231L478.199 30.7038C479.558 32.8335 481.943 34.2456 484.657 34.2456C486.688 34.2456 488.635 33.4389 490.071 32.0029L494.757 27.3167C496.193 25.8807 497 23.9332 497 21.9025C497 17.6737 493.572 14.2456 489.343 14.2456C487.312 14.2456 485.365 15.0523 483.929 16.4882L471.243 29.1745Z" fill="#394149"/>
</g>
<defs>
<clipPath id="clip0_0_1441">
<rect width="40" height="40" fill="white" transform="translate(0.353333 0.593506)"/>
</clipPath>
<clipPath id="clip1_0_1441">
<rect width="40" height="28" fill="white" transform="translate(89.1123 10.2456)"/>
</clipPath>
<clipPath id="clip2_0_1441">
<rect width="55" height="30" fill="white" transform="translate(178 9.24561)"/>
</clipPath>
<clipPath id="clip3_0_1441">
<rect width="47" height="29" fill="white" transform="translate(267 10.2456)"/>
</clipPath>
<clipPath id="clip4_0_1441">
<rect width="41" height="27" fill="white" transform="translate(356 11.2456)"/>
</clipPath>
<clipPath id="clip5_0_1441">
<rect width="52" height="20" fill="white" transform="translate(445 14.2456)"/>
</clipPath>
</defs>
</svg>
